<svg id="ecmdukrTJpq1" xmlns="http://www.w3.org/2000/svg" xmlns:xlink="http://www.w3.org/1999/xlink" viewBox="0 60 106 39" shape-rendering="geometricPrecision" text-rendering="geometricPrecision"><defs><linearGradient id="ecmdukrTJpq9-stroke" x1="3" y1="82" x2="42.3319" y2="77.8906" spreadMethod="pad" gradientUnits="userSpaceOnUse" gradientTransform="translate(0 0)"><stop id="ecmdukrTJpq9-stroke-0" offset="0%" stop-color="#e41b1b"/><stop id="ecmdukrTJpq9-stroke-1" offset="100%" stop-color="#bd0000"/></linearGradient></defs><g transform="translate(-1.770631 15.38039)" clip-path="url(#ecmdukrTJpq10)"><g><path d="M17.3899,57.1658l.0014-.004.0003-.0016.0011-.0027c.3233-1.0652,1.2471-1.817,2.3565-1.9161l8.3865-.7488c.8876-.526,6.6516-3.8642,14.3828-6.5536c4.1926-1.4585,14.5374-2.8705,21.2046-1.7634c5.4473.9045,13.8263,8.5419,15.1557,9.7808c2.2302.026,18.5361.3657,24.7772,4.7294.353.2461.726.8363,1.077,1.5477.147.1056.243.2765.243.4707c0,.0129-.003.0248-.004.0374.565,1.2556,1.043,2.7046,1.239,3.3268.004.012.006.0243.009.0365.003.0112.006.0224.008.034.006.0345.01.0694.01.1046v4.8541c0,4.2799-10.9781,5.3617-13.6862,5.4313-1.5162,1.7347-3.7425,2.8337-6.2219,2.8337-2.4777,0-4.7025-1.0974-6.2186-2.8299h-30.5949v-1.163h29.7408c-.7563-1.2475-1.1922-2.7098-1.1922-4.2721c0-4.5572,3.7076-8.2649,8.2649-8.2649s8.2649,3.7077,8.2649,8.2649c0,1.5472-.4282,2.9958-1.171,4.2352c3.8198-.2257,10.4782-1.4865,11.5132-3.6537h-6.8682c-.3211,0-.5815-.2603-.5815-.5814s.2604-.5815.5815-.5815h7.0062v-3.6955c-4.257-.0442-7.4273-.5746-9.4229-1.5813-.6906-.3484-1.0339-1.0894-.8544-1.844.1811-.7612.827-1.2726,1.6074-1.2726h6.9589c-.143-.2419-.27-.4116-.374-.4839-6.2668-4.3813-24.1663-4.5206-24.3465-4.5215-.1478-.0008-.2898-.0578-.3972-.1596-.0919-.0871-9.257-8.7288-14.7137-9.6349-6.4887-1.0775-16.5536.2958-20.6321,1.7146-8.2508,2.8702-14.2187,6.4828-14.278,6.5189-.0762.0465-.1622.0749-.251.0828l-8.5188.7606c-.4353.0389-.8205.2536-1.0792.5813l4.2511,1.3223c.1658.0516.3.1746.3656.3354s.056.3425-.0263.4955l-2.4525,4.5556c-.1014.1883-.2981.3058-.512.3058h-.6502l-1.2711-1.163h1.5739l1.9534-3.6285-3.6703-1.1416-.9358,3.1197-.8438-1.2345.8344-2.782Zm79.0152,6.1199h7.5339c.306.6994.628,1.5396.912,2.3698-4.9068-.0742-7.4208-.8218-8.6751-1.4544-.3103-.1565-.2674-.4503-.2468-.5365.0211-.0889.118-.3789.476-.3789Zm-2.9733,7.812c0,3.916-3.1859,7.1019-7.1019,7.1019s-7.1019-3.1859-7.1019-7.1019c0-3.9161,3.1859-7.102,7.1019-7.102s7.1019,3.1859,7.1019,7.102Z" clip-rule="evenodd" fill="#939faa" fill-rule="evenodd"/><path d="M26.8116,67.5942c1.3209-2.8107,4.1795-4.7615,7.4851-4.7615c3.1355,0,5.8688,1.7551,7.2691,4.3344-.7621-.3416-1.738-.7871-2.1307-.9672-1.2943-1.3572-3.1193-2.2042-5.1384-2.2042-1.953,0-3.7244.7925-5.0096,2.0727l-2.4755,1.5258Z" fill="#939faa"/><path d="M86.3299,66.4313c2.573,0,4.6663,2.0933,4.6663,4.6664c0,2.573-2.0933,4.6663-4.6663,4.6663s-4.6664-2.0933-4.6664-4.6663c0-2.5731,2.0934-4.6664,4.6664-4.6664Zm3.5034,4.6664c0,1.9317-1.5716,3.5033-3.5034,3.5033-1.9317,0-3.5034-1.5716-3.5034-3.5033c0-1.9319,1.5717-3.5035,3.5034-3.5035c1.9318,0,3.5034,1.5716,3.5034,3.5035Z" clip-rule="evenodd" fill="#939faa" fill-rule="evenodd"/><path d="M43.5702,50.9622c-2.3958.8333-4.8309,1.8136-7.2376,2.9132-.3543.162-.5951.4891-.6442.8749-.049.3851.1018.7611.4035,1.0059l.4635.3761c1.6891,1.3706,3.8167,2.1634,5.9908,2.2324l33.8795,1.075c.0062.0002.0124.0004.0186.0004.2339,0,.4459-.1406.5364-.3576.093-.2227.0387-.4798-.1365-.6458-3.5133-3.332-10.0467-8.5061-13.6453-9.1037-1.4363-.2386-3.1394-.3595-5.062-.3595-3.0575,0-6.3202.3082-9.1036.7486-.0008.0001-.0017.0002-.0026.0002l-.006.0001c-.0033,0-.0065,0-.0098.0005-.0046.0006-.0089.0019-.0132.0031-.0013.0004-.0027.0008-.004.0012-.0023.0006-.0046.0012-.007.0016-2.2417.3564-4.1692.7981-5.4205,1.2334Zm14.5666-.8257c1.859,0,3.498.1156,4.8716.3437c2.8241.469,8.2615,4.5094,11.8897,7.7476l-24.2019-.768-.9438-6.6746c2.5967-.3853,5.5751-.6487,8.3844-.6487ZM42.5831,57.2023c-1.9216-.0609-3.802-.7616-5.2949-1.973l-.4035-.3274c2.3513-1.072,4.7288-2.0277,7.0676-2.8413c1.0958-.3813,2.733-.7676,4.6513-1.0932l.9128,6.455-6.9333-.2201ZM57.007,61.7637c0,.3212-.2603.5815-.5814.5815h-3.5378c-.3211,0-.5814-.2603-.5814-.5815s.2603-.5814.5814-.5814h3.5378c.3211,0,.5814.2603.5814.5814Z" clip-rule="evenodd" fill="#939faa" fill-rule="evenodd"/><path d="M75.2992,72.5341c.3212,0,.5815-.2603.5815-.5815s-.2603-.5814-.5815-.5814h-28.8007c.3334.029,1,.3023,1,1.1629h27.8007Z" fill="#939faa"/><path d="M29.4502,69.3173v0l.0068.0023c2.1283.7033,4.3719,1.0603,6.6543,1.0603c1.1785,0,2.1386.9601,2.1387,2.1386v6.5928c0,1.1786-.9601,2.1387-2.1387,2.1387C18.2677,81.25,3.75,66.7323,3.75,48.8887c0-1.1786.96012-2.1387,2.13871-2.1387h6.61119c1.1786,0,2.1387.9601,2.1387,2.1388v0c0,2.2818.3575,4.5224,1.0623,6.6592.2457.7887.0382,1.6188-.5317,2.188l-.0375.0375-.0319.0423-2.9658,3.9424-.2866.3811.2234.4213c2.5423,4.7922,5.5422,7.7903,10.367,10.3658l.4226.2256.3824-.2887l4.0479-3.0557.0456-.0344.0398-.041c.1831-.188.5032-.3665.9066-.4569.3982-.0892.8156-.0781,1.1675.042Z" fill="none" stroke="url(#ecmdukrTJpq9-stroke)" stroke-width="1.5"/></g><clipPath id="ecmdukrTJpq10"><rect width="125" height="125" rx="0" ry="0" transform="matrix(-1 0 0 1 125.5 0)" fill="#fff"/></clipPath></g></svg>
