<svg xmlns="http://www.w3.org/2000/svg" width="126" height="67" viewBox="-40 67 125 1" fill="none">
<path d="M35.33 50.534H9.47017C9.03142 50.534 8.67578 50.8897 8.67578 51.3284C8.67578 51.7672 9.03142 52.1228 9.47017 52.1228H35.3301C35.7688 52.1228 36.1244 51.7672 36.1244 51.3284C36.1244 50.8897 35.7687 50.534 35.33 50.534Z" fill="#939FAA"/>
<path d="M9.47017 46.6124H22.4C22.8388 46.6124 23.1944 46.2567 23.1944 45.818C23.1944 45.3792 22.8388 45.0236 22.4 45.0236H9.47017C9.03142 45.0236 8.67578 45.3792 8.67578 45.818C8.67578 46.2568 9.03142 46.6124 9.47017 46.6124V46.6124Z" fill="#939FAA"/>
<path d="M35.33 55.4164H9.47017C9.03142 55.4164 8.67578 55.772 8.67578 56.2108C8.67578 56.6495 9.03142 57.0052 9.47017 57.0052H35.3301C35.7688 57.0052 36.1244 56.6495 36.1244 56.2108C36.1243 55.772 35.7687 55.4164 35.33 55.4164Z" fill="#939FAA"/>
<path d="M15.3593 84.4806H7.08346C5.72513 84.4806 4.61993 83.3755 4.61993 82.0172V40.0522C4.61993 38.6939 5.72513 37.5887 7.08346 37.5887H30.9253C31.0023 37.5887 31.0781 37.5957 31.1531 37.6059V42.5602C31.1531 44.7946 32.971 46.6124 35.2053 46.6124H40.1595C40.1697 46.6875 40.1767 46.7633 40.1767 46.8403V60.3678C40.1767 60.8066 40.5323 61.1622 40.9711 61.1622C41.4098 61.1622 41.7655 60.8066 41.7655 60.3678V46.8404C41.7655 45.969 41.4261 45.1497 40.8099 44.5335L33.232 36.9555C32.6159 36.3394 31.7967 36 30.9253 36H7.08346C4.849 36 3.03125 37.8179 3.03125 40.0522V82.0172C3.03125 84.2515 4.84911 86.0693 7.08346 86.0693H15.3593C15.798 86.0693 16.1537 85.7136 16.1537 85.2749C16.1537 84.8361 15.798 84.4806 15.3593 84.4806V84.4806ZM39.0534 45.0237H35.2054C33.8471 45.0237 32.7419 43.9185 32.7419 42.5602V38.7122L39.0534 45.0237Z" fill="#939FAA"/>
<path d="M66.7197 76.8582L58.9837 63.97C58.4199 63.0303 57.1929 62.7197 56.2404 63.2766L54.3587 64.377C52.8981 65.231 52.2807 66.9593 52.7822 68.4909C52.1482 68.7176 51.4532 68.714 50.8131 68.4699C49.3274 68.0085 48.1979 67.0804 46.3325 67.5461C43.165 68.3421 43.2612 68.3022 42.9747 68.3991C41.12 67.3569 40.0051 67.0468 38.0363 67.7985L36.2813 68.4682C35.4687 68.7781 34.5734 68.7046 33.8226 68.2655L33.3436 67.9868C33.5773 66.6047 32.9563 65.1461 31.6413 64.3772L29.7596 63.2769C28.8098 62.7216 27.5791 63.0324 27.0164 63.97L19.2802 76.8583C18.7164 77.7978 19.0301 79.0092 19.9824 79.5659L21.864 80.6662C22.4333 80.9992 23.0591 81.1575 23.6773 81.1575C24.3667 81.1575 25.0464 80.9603 25.6275 80.5889L26.0196 80.8173L25.1917 81.9555C24.2051 83.312 24.5186 85.1984 25.8932 86.1723C26.5289 86.6226 27.3275 86.8283 28.1533 86.7003C28.2844 87.4563 28.704 88.1639 29.3836 88.6456C30.0218 89.0979 30.8168 89.3038 31.6441 89.1752C31.7755 89.9306 32.1949 90.6376 32.8741 91.1189C33.7869 91.7656 34.9218 91.8404 35.8674 91.4418C36.0743 91.9723 36.434 92.4513 36.9357 92.8069C38.2459 93.735 40.0506 93.493 41.0686 92.2905L43.2687 93.5769C44.7237 94.428 46.6011 93.955 47.4638 92.5172C47.6844 92.1497 47.8213 91.7491 47.8713 91.3374L47.8763 91.3404C49.3291 92.1897 51.2107 91.7142 52.0714 90.2806C52.3206 89.8653 52.4572 89.4148 52.4904 88.9634C53.771 89.2812 55.1666 88.7503 55.8733 87.573C56.1052 87.1868 56.2396 86.7696 56.2839 86.3497C57.6563 86.8813 59.2604 86.3676 60.0355 85.0763C60.4524 84.3818 60.5703 83.5687 60.3675 82.7866C60.2515 82.3391 60.0382 81.9329 59.7453 81.5899L60.958 80.8905C61.9839 81.3062 63.1546 81.2397 64.1358 80.6661L66.0171 79.5658C66.9694 79.0095 67.284 77.7983 66.7197 76.8582ZM22.7947 79.1157L20.9131 78.0153C20.8295 77.9664 20.8017 77.8594 20.8512 77.7769L28.5874 64.8883C28.6373 64.8053 28.746 64.7784 28.8291 64.8272L30.7106 65.9274C31.5467 66.4164 31.8082 67.4748 31.3219 68.2849L25.1832 78.5122C24.6932 79.3287 23.6219 79.5992 22.7947 79.1157ZM26.958 84.7082C26.4035 84.3153 26.2767 83.5541 26.6751 83.0066L27.892 81.3335C28.2797 80.8004 29.0522 80.6546 29.616 81.0541C30.1694 81.4462 30.2963 82.2094 29.8992 82.7556L28.6821 84.4287C28.2849 84.9751 27.5111 85.1 26.958 84.7082ZM30.4485 87.1816C29.8952 86.7894 29.7682 86.026 30.1655 85.4799L31.3824 83.8069L32.7255 81.9603C32.918 81.6958 33.2032 81.5208 33.5288 81.4682C33.5965 81.4572 33.6642 81.4518 33.7315 81.4518C33.9878 81.4518 34.2371 81.5305 34.4495 81.6809C34.7174 81.8709 34.8946 82.1523 34.948 82.4737C35.0014 82.7952 34.9249 83.1179 34.7324 83.3824L32.1724 86.9021C31.7745 87.4495 31.0032 87.5748 30.4485 87.1816ZM33.9391 89.6548C33.3859 89.2629 33.2589 88.5 33.6554 87.954C33.6553 87.9542 33.6555 87.9537 33.6554 87.954L36.2159 84.4336C36.6129 83.8875 37.3868 83.7622 37.9399 84.1541C38.4933 84.5462 38.6202 85.3095 38.223 85.8557L37.0856 87.4196L35.6629 89.3755C35.2657 89.9216 34.4925 90.0472 33.9391 89.6548ZM38.0006 91.3428C37.4476 90.9508 37.3205 90.1883 37.7168 89.6422L38.5688 88.4708C38.9659 87.9245 39.7397 87.7996 40.2928 88.1914C40.846 88.5834 40.9731 89.3469 40.5758 89.8931L39.7245 91.0633C39.3274 91.6096 38.5538 91.735 38.0006 91.3428ZM58.4649 84.1578C58.1175 84.7366 57.3581 84.9285 56.7717 84.5857C55.7786 84.005 49.3729 80.2593 48.6899 79.8599C48.256 79.6063 47.6961 79.7476 47.4391 80.1758C47.1821 80.604 47.3252 81.1567 47.7591 81.4104L53.8689 84.9831C54.4555 85.326 54.6513 86.0734 54.3026 86.6546C53.955 87.2336 53.1953 87.4251 52.6091 87.0826C50.3493 85.7612 48.5144 84.6882 46.496 83.5079C46.0619 83.2543 45.5021 83.3956 45.2451 83.8238C44.9881 84.252 45.1313 84.8047 45.5651 85.0584L50.067 87.6909L50.068 87.6915C50.6549 88.0354 50.8486 88.7823 50.5006 89.3623C50.1531 89.9413 49.3936 90.1331 48.807 89.7902L46.391 88.3775C46.3912 88.3777 46.3908 88.3774 46.391 88.3775C46.3908 88.3774 46.3897 88.3768 46.3894 88.3767L44.6263 87.3456C44.1923 87.0918 43.6324 87.2331 43.3754 87.6614C43.1184 88.0896 43.2616 88.6424 43.6954 88.896L45.4589 89.9273C45.4587 89.9272 45.4592 89.9274 45.4589 89.9273C46.0455 90.2702 46.2419 91.0177 45.8932 91.599C45.5456 92.1779 44.7862 92.3697 44.1996 92.0268L42.1424 90.824C43.0242 89.4809 42.6888 87.6709 41.3577 86.7278C40.9668 86.451 40.5315 86.2785 40.0862 86.2045C40.5585 84.9581 40.1513 83.503 39.0047 82.6906C38.3259 82.2094 37.5131 82.0432 36.746 82.1619C36.6095 81.374 36.173 80.6839 35.5144 80.2174C34.2758 79.34 32.5925 79.5086 31.5528 80.5468C31.3416 80.1806 31.0499 79.852 30.6809 79.5906C29.6516 78.8615 28.3153 78.8546 27.2963 79.4688L26.878 79.2251L32.6202 69.6583L32.8935 69.8174C34.1009 70.5233 35.5742 70.6705 36.9396 70.1493L38.6946 69.4797C39.6989 69.0966 40.2528 69.0716 41.2462 69.5342C40.5962 70.255 40.2104 71.2012 40.2104 72.2211V76.2167C40.2104 77.2779 41.0845 78.1419 42.1589 78.1426H42.1615C43.2392 78.1426 44.2526 77.7285 45.0149 76.9766C45.4593 76.5382 45.7873 76.0156 45.9839 75.4451C47.1628 76.1341 56.9025 81.8268 58.0316 82.4871C58.3157 82.6532 58.5171 82.9184 58.5989 83.234C58.6808 83.5493 58.6331 83.8775 58.4649 84.1578ZM65.0869 78.0153L63.2052 79.1157C62.378 79.5991 61.3066 79.3283 60.8169 78.5123L57.9396 73.7187C57.6825 73.2905 57.1222 73.1492 56.6888 73.4026C56.2549 73.6563 56.1116 74.209 56.3685 74.6372L59.2458 79.431C59.3 79.5212 59.3588 79.607 59.4196 79.6906L58.6197 80.1518C58.458 80.2464 58.3024 80.3505 58.1537 80.4635L45.7501 73.2136C45.1424 72.8586 44.372 73.2913 44.372 73.9889C44.3624 74.0427 44.4663 74.969 43.724 75.7014C43.3066 76.1131 42.7516 76.3399 42.1614 76.3399C42.1609 76.3399 42.1604 76.3399 42.1599 76.3399C42.0917 76.3399 42.0362 76.2844 42.0362 76.2162V72.2206C42.0362 71.1768 42.7637 70.2962 43.7477 70.0504L46.7801 69.2929C47.8804 69.0184 48.5024 69.5984 50.1499 70.1487C51.2936 70.5854 52.5372 70.5585 53.6411 70.0932L54.1921 71.0114C54.4492 71.4398 55.0093 71.581 55.443 71.3275C55.8768 71.0738 56.0201 70.5211 55.7632 70.0928L54.6778 68.2846C54.1868 67.4665 54.4604 66.4122 55.2892 65.9273L57.1707 64.8271C57.2529 64.7789 57.3617 64.8035 57.4126 64.8883L65.1486 77.7766C65.1985 77.8598 65.171 77.9661 65.0869 78.0153Z" fill="url(#paint0_linear_1505_60984)"/>
<defs>
<linearGradient id="paint0_linear_1505_60984" x1="19" y1="94" x2="70.6629" y2="85.6423" gradientUnits="userSpaceOnUse">
<stop stop-color="#E41B1B"/>
<stop offset="1" stop-color="#BD0000"/>
</linearGradient>
</defs>
</svg>

