<svg id="eJ2HNbLct5K1" xmlns="http://www.w3.org/2000/svg" xmlns:xlink="http://www.w3.org/1999/xlink" viewBox="0 60 87 44" shape-rendering="geometricPrecision" text-rendering="geometricPrecision"><defs><linearGradient id="eJ2HNbLct5K7-stroke" x1="1" y1="79" x2="23.8246" y2="77.7644" spreadMethod="pad" gradientUnits="userSpaceOnUse" gradientTransform="translate(0 0)"><stop id="eJ2HNbLct5K7-stroke-0" offset="0%" stop-color="#e41b1b"/><stop id="eJ2HNbLct5K7-stroke-1" offset="100%" stop-color="#bd0000"/></linearGradient></defs><path d="M68.5258,67.8233c2.3906,0,4.3355,1.9683,4.3355,4.3876s-1.9449,4.3876-4.3355,4.3876-4.3355-1.9683-4.3355-4.3876s1.9449-4.3876,4.3355-4.3876Zm3.2953,4.3875c0,1.8389-1.4782,3.335-3.2953,3.335s-3.2953-1.496-3.2953-3.335c0-1.8388,1.4782-3.3348,3.2953-3.3348s3.2953,1.496,3.2953,3.3348Z" transform="translate(.650813 22.729632)" clip-rule="evenodd" fill="#939faa" fill-rule="evenodd"/><path d="M38.6157,63.2188c0-.2906.2329-.5263.5201-.5263h3.0758c.2872,0,.5201.2357.5201.5263s-.2329.5264-.5201.5264h-3.0758c-.2872,0-.5201-.2357-.5201-.5264ZM24.2498,62.0775c0-.2906.2328-.5263.5201-.5263h3.0757c.2872,0,.5201.2357.5201.5263c0,.2908-.2329.5264-.5201.5264h-3.0757c-.2873,0-.5201-.2356-.5201-.5264Zm34.114,9.6429c.2873.0036.5172.2421.5137.5328-.0035.2884-.2357.5198-.52.5198h-.0065l-33.683-.4221c-.2872-.0036-.5172-.2421-.5136-.5328s.2397-.522.5265-.5198l33.6829.4221Z" transform="translate(.650813 22.729632)" clip-rule="evenodd" fill="#939faa" fill-rule="evenodd"/><path d="M82.6227,76.0978h-7.4313C73.8596,78.4278,71.3715,80,68.5258,80s-5.3338-1.5722-6.6656-3.9022h-40.4934l.5014-1.0527h39.4907c-.3406-.879-.5298-1.8344-.5298-2.8342c0-4.2949,3.4527-7.7891,7.6967-7.7891s7.6967,3.4942,7.6967,7.7891c0,.9998-.1891,1.9552-.5297,2.8342h6.9299c.2786,0,.5052-.2293.5052-.5112v-4.8228h-1.78c-.8771,0-1.6846-.4453-2.1601-1.1912l-4.4785-7.0261c-4.2391-1.2082-10.556-2.0593-12.7211-2.3294-.4907-.0613-.9606-.251-1.359-.5489-2.112-1.5791-12.9852-9.5159-19.6524-10.7008-5.4323-.9654-11.2466-.9953-16.2069-.6965l1.2316-1.1186c4.7304-.2214,10.1022-.1197,15.1552.7783c6.7236,1.1949,17.0774,8.6381,20.0905,10.8909.2583.1931.5504.3112.8682.3508c2.7107.3382,11.8458,1.5773,15.5891,3.3243c4.168,1.9454,6.4635,4.6944,6.4635,7.7408v5.3492c0,.8623-.6931,1.5639-1.5453,1.5639Zm-7.4404-3.8869c0,3.7145-2.9861,6.7364-6.6565,6.7364s-6.6565-3.0219-6.6565-6.7364s2.9861-6.7365,6.6565-6.7365s6.6565,3.022,6.6565,6.7365ZM76.2634,61.99c.3677.1333.7056.27,1.0055.4099c2.0769.9693,5.4874,3.0371,5.8288,6.2585h-1.7498c-.5222,0-1.0029-.2651-1.286-.7092L76.2634,61.99Z" transform="translate(.650813 22.729632)" clip-rule="evenodd" fill="#939faa" fill-rule="evenodd"/><path d="M58.1667,60.8226c-.0083,0-.0166-.0001-.0249-.0006L26.0015,59.2717v-1.0539l10.4183.5025-1.2859-8.3599c-.9862-.067-2.0678-.0972-3.4331-.0972-2.121,0-4.1438.0719-6.037.1871l.3377-1.0747c1.7962-.1024,3.7047-.1651,5.6993-.1651c1.4933,0,2.6543.0352,3.7181.114.0256-.0083.0514-.0164.0789-.0208.1123-.0177.2213.0036.3154.0522c1.4982.1292,2.8553.3509,4.7652.6916c4.9306.8794,13.5987,6.4966,17.9042,9.8307.1807.14.2505.3825.1724.5987-.0752.2084-.2708.3457-.4883.3457ZM36.2005,50.4503c1.2887.1309,2.5275.3361,4.1974.634c4.2807.7634,11.591,5.3159,16.087,8.6039l-19.0045-.9167-1.2799-8.3212Z" transform="translate(.650813 22.729632)" clip-rule="evenodd" fill="#939faa" fill-rule="evenodd"/><path d="M72.8613,72.2109c0-2.4193-1.9449-4.3876-4.3355-4.3876s-4.3355,1.9683-4.3355,4.3876s1.9449,4.3876,4.3355,4.3876s4.3355-1.9683,4.3355-4.3876Zm-1.0402-.0001c0,1.8389-1.4782,3.335-3.2953,3.335s-3.2953-1.496-3.2953-3.335c0-1.8388,1.4782-3.3348,3.2953-3.3348s3.2953,1.496,3.2953,3.3348Z" transform="translate(.650813 22.729632)" clip-rule="evenodd" fill="#939faa" fill-rule="evenodd"/><path d="M16.926,57.1703c-1.5696-.8674-3.2384-1.5283-4.8907-2.214-.9583-.3966-1.8753-.8592-2.68492-1.5036-1.59443-1.2722-1.28876-3.3375.5783-4.1554.52872-.2313,1.08222-.3057,1.64402-.3387c2.1644-.1157,4.2215.2809,6.1794,1.2226.9749.4709,1.2971.3222,1.6275-.6939.347-1.074.6362-2.1645.9583-3.2467.2148-.727-.0495-1.2062-.7352-1.5118-1.2557-.5535-2.5445-.9501-3.8994-1.1649-1.7679-.2726-1.7679-.2809-1.7761-2.057-.0083-2.5032-.0083-2.5032-2.5197-2.5032-.3635,0-.727-.0083-1.0905,0-1.17315.033-1.37142.2396-1.40447,1.4209-.01652.5287,0,1.0575-.00826,1.5945-.00826,1.5696-.01652,1.5448-1.52008,2.0901-3.63499,1.3218-5.88207,3.8002-6.12164,7.7656-.2148,3.5111,1.61922,5.8821,4.50242,7.6087c1.77618,1.0657,3.74238,1.6936,5.62593,2.528.7353.3222,1.4375.6939,2.0488,1.2061c1.8093,1.4953,1.4788,3.982-.6691,4.9238-1.1484.5039-2.3628.6278-3.61023.4709-1.92489-.2396-3.76716-.7436-5.50204-1.644-1.01614-.5288-1.31355-.3883-1.66053.7104-.2974.9501-.56177,1.9084-.82613,2.8667-.355235,1.2888-.223055,1.5944,1.00788,2.1975c1.56965.7601,3.2467,1.1484,4.9568,1.421c1.33833.2148,1.37964.2726,1.39616,1.6605.00826.6279.00826,1.264.01652,1.8918.00827.7931.38829,1.2558,1.20616,1.2723.92531.0165,1.85881.0165,2.78411-.0083.76-.0165,1.1483-.4296,1.1483-1.1979c0-.8591.0413-1.7266.0082-2.5858-.0413-.8757.3388-1.3218,1.1814-1.5531c1.9414-.5287,3.5937-1.5696,4.8659-3.1228c3.5359-4.2959,2.1893-10.5827-2.8171-13.3503Z" transform="translate(.650813 22.729632)" fill="none" stroke="url(#eJ2HNbLct5K7-stroke)" stroke-width="1.5"/></svg>
