<svg id="eCFQHE4O8GR1" xmlns="http://www.w3.org/2000/svg" xmlns:xlink="http://www.w3.org/1999/xlink" viewBox="0 60 87 46" shape-rendering="geometricPrecision" text-rendering="geometricPrecision"><defs><linearGradient id="eCFQHE4O8GR6-fill" x1="0" y1="82" x2="35.131" y2="79.2685" spreadMethod="pad" gradientUnits="userSpaceOnUse" gradientTransform="translate(0 0)"><stop id="eCFQHE4O8GR6-fill-0" offset="0%" stop-color="#e41b1b"/><stop id="eCFQHE4O8GR6-fill-1" offset="100%" stop-color="#bd0000"/></linearGradient></defs><path d="M53.358,45.6349c.1629,0,.2956.1318.2956.2937c0,.4865.3972.8809.8871.8809s.887-.3944.887-.8809c0-1.1334-.9286-2.0556-2.0697-2.0556h-3.8437v-1.4682c0-1.1334-.9286-2.0556-2.0697-2.0556h-1.1827c-1.1412,0-2.0697.9222-2.0697,2.0556v1.4682h-2.9567v-3.8174c0-1.1334-.9285-2.0556-2.0697-2.0556h-1.1827c-1.1412,0-2.0697.9222-2.0697,2.0556v3.8174h-3.3452c.2976.1958.9819.8222,1.3381,1.7619h19.4517Zm-7.0961-3.5238c-.163,0-.2957.1318-.2957.2937v1.4682h1.774v-1.4682c0-.1619-.1327-.2937-.2956-.2937h-1.1827Zm-8.2788-2.3492c-.163,0-.2957.1318-.2957.2937v3.8174h1.7741v-3.8174c0-.1619-.1327-.2937-.2957-.2937h-1.1827Z" transform="translate(.691261 22.691261)" clip-rule="evenodd" fill="#939faa" fill-rule="evenodd"/><path d="M86,58.0582v-.3836c0-1.1334-.9285-2.0556-2.0697-2.0556h-8.0395c-.7576,0-1.5039.1957-2.1615.5594-1.5088-1.8356-3.7581-2.9086-6.1791-2.9086-2.5058,0-4.7445,1.1535-6.2091,2.9529v-.8973c0-1.1334-.9285-2.0556-2.0697-2.0556h-5.0264v-4.992c0-.4865-.3972-.881-.887-.881h-19.0064c.1484.3513.4452,1.1954.4452,1.7619h17.6742v10.886c-.2585-.1265-.4981-.293-.7076-.5013L49.111,56.9091c-.8377-.832-1.9515-1.2901-3.136-1.2901h-10.0616c-.2238.3943-.7604,1.2987-1.1166,1.762h11.1782c.7108,0,1.379.2748,1.8816.774l2.6524,2.6343c.7152.7103,1.6318,1.147,2.6218,1.2598.0727.0191.1485.0303.2273.0303.031,0,.0616-.0017.0918-.0047.0648.0028.1298.0047.1951.0047h13.8433c1.0033,0,1.9873-.3428,2.7707-.9652L74.2285,57.96c.47-.3734,1.0604-.579,1.6624-.579h8.0394c.1631,0,.2957.1317.2957.2936v.3836c0,2.0227-.6118,4.0043-1.7769,5.7831h-5.2666c-.49,0-.887.3944-.887.8809s.397.881.887.881h4.1174c-.2921.6397-.4446,1.3349-.4446,2.0555c0,1.9065,1.1186,3.6728,2.8498,4.4996.3214.1535.5209.4542.5209.7861c0,.1619-.1326.2937-.2957.2937h-44.8149c-.4899,0-.887.3944-.887.8809s.3971.881.887.881h44.8149C85.0715,75,86,74.0778,86,72.9432c0-1.014-.5847-1.9231-1.526-2.3727-1.1206-.5353-1.8446-1.6782-1.8446-2.9119c0-.7184.2322-1.3981.6718-1.9657C85.0668,63.4129,86,60.7727,86,58.0582ZM54.245,60.3175h5.3221v-4.9921c0-.1619-.1326-.2937-.2957-.2937h-5.0264v5.2858Zm13.2432,0c.602,0,1.1924-.2057,1.6624-.5791l3.1547-2.5066c-1.1735-1.3899-2.8996-2.2001-4.7551-2.2001-3.1226,0-5.713,2.3014-6.1448,5.2858h6.0828Z" transform="translate(.691261 22.691261)" clip-rule="evenodd" fill="#939faa" fill-rule="evenodd"/><path d="M70.3898,65.6032c.49,0,.887-.3945.887-.881s-.397-.8809-.887-.8809h-37.8216l-.7942,1.7619h38.6158Z" transform="translate(.691261 22.691261)" fill="#939faa"/><path d="M32.5682,71.378l3.0773,2.172c.3994.2819.9532.1888,1.2369-.2078s.1902-.9466-.2092-1.2284l-3.0774-2.172c-.9465-.6681-1.8022-1.4359-2.5572-2.2832L30,69.1434c.771.8221,1.6297,1.5721,2.5682,2.2346Z" transform="translate(.691261 22.691261)" fill="#939faa"/><path d="M16,82c.1991,0,.3875-.0902.5117-.2451l.2268-.2822C21.3054,75.7948,32,62.4976,32,54.967C32,46.1628,24.8224,39,16,39s-16,7.1628-16,15.9669c0,6.6672,8.27743,17.8183,15.4883,26.7879.1243.155.3127.2452.5117.2452Zm0-41.6906c8.0989,0,14.6878,6.5752,14.6878,14.6576c0,6.9243-10.0637,19.5799-14.6874,25.3319C11.5181,74.7136,1.31217,61.7562,1.31217,54.967c0-8.0824,6.589-14.6576,14.68783-14.6576Zm9.7686,14.639c0-5.3751-4.382-9.7482-9.7686-9.7482-5.3861,0-9.7681,4.3731-9.7681,9.7482c0,5.3752,4.382,9.748,9.7681,9.748c5.3866-.0001,9.7686-4.3728,9.7686-9.748ZM16,63.3869c-4.6625,0-8.45594-3.7855-8.45594-8.4386s3.79344-8.4388,8.45594-8.4388c4.6631,0,8.4564,3.7858,8.4564,8.4388s-3.7934,8.4386-8.4564,8.4386Z" transform="translate(.691261 22.691261)" fill="url(#eCFQHE4O8GR6-fill)"/></svg>
