<svg id="e2N1JyGQew61" xmlns="http://www.w3.org/2000/svg" xmlns:xlink="http://www.w3.org/1999/xlink" width="50" height="67" viewBox="-40 97 50 1" shape-rendering="geometricPrecision" text-rendering="geometricPrecision"><path d="M35.33,50.534h-25.85983c-.43875,0-.79439.3557-.79439.7944s.35564.7944.79439.7944h25.85993c.4387,0,.7943-.3556.7943-.7944s-.3557-.7944-.7944-.7944Z" transform="translate(-42.0338 31.9903)" fill="#939faa"/><path d="M9.47017,46.6124h12.92983c.4388,0,.7944-.3557.7944-.7944s-.3556-.7944-.7944-.7944h-12.92983c-.43875,0-.79439.3556-.79439.7944s.35564.7944.79439.7944v0Z" transform="translate(-42.0338 31.9903)" fill="#939faa"/><path d="M35.33,55.4164h-25.85983c-.43875,0-.79439.3556-.79439.7944s.35564.7944.79439.7944h25.85993c.4387,0,.7943-.3557.7943-.7944-.0001-.4388-.3557-.7944-.7944-.7944Z" transform="translate(-42.0338 31.9903)" fill="#939faa"/><path d="M15.3593,84.4806h-8.27584c-1.35833,0-2.46353-1.1051-2.46353-2.4634v-41.965c0-1.3583,1.1052-2.4635,2.46353-2.4635h23.84184c.077,0,.1528.007.2278.0172v4.9543c0,2.2344,1.8179,4.0522,4.0522,4.0522h4.9542c.0102.0751.0172.1509.0172.2279v13.5275c0,.4388.3556.7944.7944.7944.4387,0,.7944-.3556.7944-.7944v-13.5274c0-.8714-.3394-1.6907-.9556-2.3069l-7.5779-7.578C32.6159,36.3394,31.7967,36,30.9253,36h-23.84184C4.849,36,3.03125,37.8179,3.03125,40.0522v41.965c0,2.2343,1.81786,4.0521,4.05221,4.0521h8.27584c.4387,0,.7944-.3557.7944-.7944c0-.4388-.3557-.7943-.7944-.7943v0ZM39.0534,45.0237h-3.848c-1.3583,0-2.4635-1.1052-2.4635-2.4635v-3.848l6.3115,6.3115Z" transform="translate(-42.0338 31.9903)" fill="#939faa"/><ellipse rx="8.175" ry="2.35" transform="translate(-3.349 97.386)" fill="none" stroke="#e41b1b" stroke-width="2" stroke-miterlimit="10"/><path d="M-11.523,100.981c0,1.289,3.678,2.349,8.174,2.349s8.175-1.06,8.175-2.349m-16.349,3.685c0,1.29,3.678,2.35,8.174,2.35s8.175-1.06,8.175-2.35m-16.349,3.685c0,1.291,3.678,2.35,8.174,2.35s8.175-1.059,8.175-2.35m-10.901,5.898c.864.091,1.773.138,2.726.138c4.496,0,8.175-1.06,8.175-2.349m-16.349-1.29v-13.177" fill="none" stroke="#e41b1b" stroke-width="2" stroke-miterlimit="10"/><path d="M4.826,97.386v18.337c0,1.29-3.679,2.35-8.175,2.35-.953,0-1.862-.046-2.726-.138" fill="none" stroke="#e41b1b" stroke-width="2" stroke-miterlimit="10"/><ellipse rx="8.175" ry="2.35" transform="translate(-14.249 112.96)" fill="none" stroke="#e41b1b" stroke-width="2" stroke-miterlimit="10"/><path d="M-22.424,116.645c0,1.29,3.634,2.35,8.175,2.35c4.542,0,8.174-1.06,8.174-2.35" fill="none" stroke="#e41b1b" stroke-width="2" stroke-miterlimit="10"/><path d="M-6.075,112.96v7.37c0,1.29-3.678,2.35-8.174,2.35s-8.175-1.06-8.175-2.35v-7.187" fill="none" stroke="#e41b1b" stroke-width="2" stroke-miterlimit="10"/></svg>
