<svg xmlns="http://www.w3.org/2000/svg" width="125" height="125" viewBox="0 0 125 125" fill="none">
<path d="M48.1043 71.4976C48.6436 71.4976 49.0809 71.0524 49.0809 70.5032C49.0809 69.954 48.6436 69.5088 48.1043 69.5088H35.7619L34.3333 71.4976H48.1043Z" fill="#939FAA"/>
<path fill-rule="evenodd" clip-rule="evenodd" d="M70.1026 61.7369L68.7896 60.3998L66.1444 52.3189C66.539 52.1912 66.8251 51.8153 66.8251 51.3713C66.8251 50.8221 66.3879 50.3768 65.8485 50.3768H56.3874V46.0572C56.3874 44.9228 55.4812 44 54.3671 44L54.434 46.0526L54.4341 46.0572V69.5089H52.2798C51.7405 69.5089 51.3033 69.9541 51.3033 70.5033C51.3033 71.0525 51.7405 71.4978 52.2798 71.4978H55.5515C55.0461 72.1456 54.6878 72.9168 54.5283 73.7598H32.9048L31 75.7485H54.5281C54.986 78.167 57.0791 80 59.5857 80C62.4264 80 64.7373 77.6466 64.7373 74.7541C64.7373 74.7313 64.7359 74.7089 64.7356 74.6862H68.9797C70.0937 74.6862 71 73.7634 71 72.6289V63.9431C71.0001 63.1097 70.6814 62.3263 70.1026 61.7369ZM60.6296 61.0054H66.929L65.4925 56.617H60.5624V60.937C60.5624 60.9748 60.5925 61.0054 60.6296 61.0054ZM56.3874 74.7544C56.3874 76.5502 57.8222 78.0113 59.5859 78.0113C61.3495 78.0113 62.7843 76.5502 62.7846 74.7542C62.7846 72.9607 61.3533 71.5011 59.5928 71.4974L59.5904 71.4975L59.586 71.4978H59.5659C57.8115 71.5089 56.3874 72.9653 56.3874 74.7544ZM68.9798 72.6976C69.0169 72.6976 69.047 72.667 69.047 72.6292V68.3092H67.9361C67.3967 68.3092 66.9595 67.864 66.9595 67.3148C66.9595 66.7656 67.3967 66.3203 67.9361 66.3203H69.047V63.9432C69.047 63.641 68.9314 63.357 68.7216 63.1433L68.5752 62.9943H60.6296C59.5156 62.9943 58.6093 62.0714 58.6093 60.937V55.6226C58.6093 55.0734 59.0465 54.6281 59.5859 54.6281H64.8415L64.1009 52.3656H56.4546C56.4175 52.3656 56.3874 52.3967 56.3874 52.4345V69.509H59.5658L59.5758 69.5088L59.5859 69.5085C61.71 69.5085 63.5375 70.8245 64.3246 72.6976H68.9798Z" fill="#939FAA"/>
<path d="M21 82C21.1991 82 21.3875 81.9098 21.5117 81.7549L21.7385 81.4727C26.3054 75.7948 37 62.4976 37 54.967C37 46.1628 29.8224 39 21 39C12.1777 39 5 46.1628 5 54.9669C5 61.6341 13.2774 72.7852 20.4883 81.7548C20.6126 81.9098 20.801 82 21 82ZM21 40.3094C29.0989 40.3094 35.6878 46.8846 35.6878 54.967C35.6878 61.8913 25.6241 74.5469 21.0004 80.2989C16.5181 74.7136 6.31217 61.7562 6.31217 54.967C6.31217 46.8846 12.9012 40.3094 21 40.3094ZM30.7686 54.9484C30.7686 49.5733 26.3866 45.2002 21 45.2002C15.6139 45.2002 11.2319 49.5733 11.2319 54.9484C11.2319 60.3236 15.6139 64.6964 21 64.6964C26.3866 64.6963 30.7686 60.3236 30.7686 54.9484ZM21 63.3869C16.3375 63.3869 12.5441 59.6014 12.5441 54.9483C12.5441 50.2953 16.3375 46.5095 21 46.5095C25.6631 46.5095 29.4564 50.2953 29.4564 54.9483C29.4564 59.6014 25.663 63.3869 21 63.3869Z" fill="url(#paint0_linear_1505_61023)"/>
<defs>
<linearGradient id="paint0_linear_1505_61023" x1="5" y1="82" x2="40.131" y2="79.2685" gradientUnits="userSpaceOnUse">
<stop stop-color="#E41B1B"/>
<stop offset="1" stop-color="#BD0000"/>
</linearGradient>
</defs>
</svg>